<?xml version="1.0" encoding="utf-8"?>
<!-- Generator: Adobe Illustrator 23.0.2, SVG Export Plug-In . SVG Version: 6.00 Build 0)  -->
<svg version="1.1" id="Layer_1" xmlns="http://www.w3.org/2000/svg" xmlns:xlink="http://www.w3.org/1999/xlink" x="0px" y="0px"
	 viewBox="0 0 252 144" width="186" height="107" style="enable-background:new 0 0 252 144;" xml:space="preserve">
<g>
	<g>
		<g>
			<g>
				<ellipse cx="107.95" cy="19.53" rx="2.53" ry="2.38"/>
				<ellipse cx="144.05" cy="19.53" rx="2.53" ry="2.38"/>
				<path d="M126.12,0.67c-10.36,0-18.79,6.92-18.79,15.43v0.27h0.27h1.83h0.27v-0.27c0-7.26,7.36-13.16,16.42-13.16
					c9.05,0,16.42,5.9,16.42,13.16v0.27h0.27h1.83h0.27v-0.27C144.9,7.59,136.47,0.67,126.12,0.67z"/>
			</g>
			<g>
				<path d="M96.14,30.43v-3.26c0-0.67,0.58-1.22,1.3-1.22h57.12c0.72,0,1.3,0.55,1.3,1.22v3.26H158v-3.26
					c0-1.78-1.54-3.23-3.43-3.23H97.44c-1.89,0-3.43,1.45-3.43,3.23v3.26H96.14z"/>
				<path d="M155.86,65.96v3.26c0,0.67-0.58,1.22-1.3,1.22H97.44c-0.72,0-1.3-0.55-1.3-1.22v-3.26H94v3.26
					c0,1.78,1.54,3.23,3.43,3.23h57.12c1.89,0,3.43-1.45,3.43-3.23v-3.26H155.86z"/>
			</g>
		</g>
		<polygon points="115.85,32.58 106.18,51.97 96.5,32.58 94,32.58 94,64 96.53,64 96.53,38.34 106.18,57.61 115.82,38.34 115.82,64 
			118.35,64 118.35,32.58 		"/>
		<path d="M140.86,32.58V64h2.39V44.23h8.21v-2.5h-8.21v-6.65h14.51v-2.5H140.86z"/>
		<g>
			<path d="M127.61,44.89l-0.76-0.18c0.16-0.66,0.88-1.91,2.52-1.91c1.61,0,2.35,1.23,2.52,1.89l-0.75,0.19
				c-0.01-0.05-0.36-1.3-1.76-1.3C127.93,43.58,127.62,44.84,127.61,44.89z"/>
			<path d="M133.94,49.81l-0.42-0.65l0.21,0.32l-0.21-0.32c0.05-0.03,1.12-0.77,0.63-2.11c-0.48-1.33-1.77-1.22-1.83-1.21
				l-0.08-0.77c0.67-0.07,2.08,0.21,2.63,1.72C135.43,48.33,134.51,49.44,133.94,49.81z"/>
			<path d="M124.8,49.81c-0.57-0.37-1.49-1.48-0.93-3.02c0.55-1.51,1.96-1.78,2.63-1.72l-0.08,0.77c-0.05-0.01-1.35-0.1-1.83,1.21
				c-0.49,1.34,0.59,2.08,0.63,2.11L124.8,49.81z"/>
			<path d="M131.52,53.77c-0.59,0-1.18-0.21-1.72-0.62l0.47-0.62c0.71,0.54,1.52,0.61,2.18,0.17c0.68-0.45,0.97-1.3,0.74-2.18
				l0.75-0.19c0.31,1.2-0.11,2.39-1.07,3.02C132.46,53.63,132,53.77,131.52,53.77z"/>
			<path d="M127.22,53.77c-0.48,0-0.94-0.14-1.36-0.41c-0.96-0.63-1.38-1.82-1.07-3.02l0.75,0.19c-0.22,0.88,0.07,1.73,0.74,2.18
				c0.66,0.43,1.47,0.37,2.18-0.17l0.47,0.62C128.41,53.56,127.81,53.77,127.22,53.77z"/>
			<circle cx="129.41" cy="48.66" r="1.7"/>
			<polygon points="129.63,51.51 129.18,51.51 129.18,49.01 126.8,49.78 126.66,49.35 129.04,48.58 127.57,46.55 127.94,46.28 
				129.41,48.31 130.88,46.28 131.25,46.55 129.78,48.58 132.15,49.35 132.01,49.78 129.63,49.01 			"/>
		</g>
	</g>
	<g>
		<g>
			<g>
				<rect x="0.87" y="133.65" width="1.92" height="0"/>
				<rect x="28.85" y="133.65" width="1.92" height="0"/>
				<path d="M28.53,88.08l-12.69,29.56L3.12,88.08H0.67v45.79h2.31V93.9l12.84,29.78L28.66,93.9v39.96h2.31V88.08H28.53z"/>
			</g>
			<path d="M155.67,108.61c-2.29-2.96-5.07-4.44-8.32-4.44c-3.24,0-6,1.48-8.29,4.44c-2.29,2.96-3.44,6.53-3.44,10.72
				c0,4.17,1.15,7.73,3.44,10.69c2.29,2.96,5.06,4.44,8.29,4.44c3.25,0,6.02-1.48,8.32-4.44c0.44-0.59,0.85-1.2,1.22-1.85v5.51h1.92
				c0,0,0.21-16.29-0.62-19.96C157.61,111.15,156.11,109.2,155.67,108.61z M154.01,128.12c-1.95,2.38-3.97,3.69-6.65,3.69
				c-2.68,0-4.97-1.22-6.86-3.65c-1.9-2.43-2.84-5.38-2.84-8.83s0.95-6.4,2.84-8.84c1.9-2.44,4.18-3.66,6.86-3.66
				c2.68,0,4.85,1.37,6.75,3.81c1.42,1.84,2.69,5.11,2.69,8.68C156.79,122.29,155.91,125.8,154.01,128.12z"/>
			<path d="M54.7,108.58c-2.29-2.96-5.07-4.44-8.32-4.44c-3.24,0-6,1.48-8.29,4.44c-2.29,2.96-3.44,6.53-3.44,10.72
				c0,4.17,1.15,7.73,3.44,10.69c2.29,2.96,5.06,4.44,8.29,4.44c3.25,0,6.02-1.48,8.32-4.44c0.44-0.59,0.85-1.2,1.22-1.85v5.51h1.92
				c0,0,0.21-16.29-0.62-19.96C56.64,111.12,55.14,109.17,54.7,108.58z M53.04,128.09c-1.95,2.38-3.97,3.69-6.65,3.69
				c-2.68,0-4.97-1.22-6.86-3.65c-1.9-2.43-2.84-5.38-2.84-8.83s0.95-6.4,2.84-8.84c1.9-2.44,4.18-3.66,6.86-3.66
				c2.68,0,4.85,1.37,6.75,3.81c1.42,1.84,2.69,5.11,2.69,8.68C55.82,122.26,54.94,125.77,53.04,128.09z"/>
			<path d="M65.93,107.84c-0.53,0.72-0.99,1.48-1.39,2.26v-5.25h-1.92v28.8h1.92v-14.87c0.07-3.48,1.02-6.46,2.84-8.95
				c1.3-1.78,2.55-2.71,3.76-2.79v-2.87C69.37,104.29,67.63,105.51,65.93,107.84z"/>
			<polygon points="83.54,124.83 76.57,104.17 74.39,104.17 82.58,127.67 76.92,143.98 78.8,143.98 83.54,130.4 83.54,130.43 
				92.67,104.17 90.51,104.17 			"/>
			<polygon points="105.25,88.11 105.25,133.77 107.39,133.77 107.39,104.41 117.88,104.41 117.88,101.7 107.39,101.7 107.39,90.82 
				125.94,90.82 125.94,88.11 			"/>
			<path d="M132.1,104.17c-1.78,0.12-3.52,1.34-5.22,3.67c-0.53,0.72-0.99,1.48-1.39,2.26v-5.25h-1.92v28.8h1.92v-14.87
				c0.07-3.48,1.02-6.46,2.84-8.95c1.3-1.78,2.55-2.71,3.76-2.79V104.17z"/>
			<path d="M171.62,104.11c-2.48,0-4.29,1.03-5.85,3.09c-1.55,2.06-2.35,4.66-2.39,7.8v18.65h1.92v-18.42
				c0-2.36,0.65-4.39,1.93-6.06c1.29-1.68,2.61-2.51,4.38-2.51c1.77,0,3.09,0.84,4.38,2.51c1.29,1.67,1.93,3.69,1.93,6.06v18.42
				h1.92v-18.65c-0.04-3.14-0.84-5.74-2.39-7.8C175.91,105.14,174.1,104.11,171.62,104.11z"/>
			<path d="M203.19,128.12c-1.9,2.44-4.18,3.66-6.86,3.66c-2.66,0-4.94-1.22-6.84-3.66c-1.9-2.44-2.84-5.39-2.84-8.84
				s0.95-6.4,2.84-8.83c1.9-2.43,4.18-3.65,6.84-3.65c2.68,0,4.97,1.21,6.86,3.64c0.24,0.33,0.47,0.66,0.68,0.99l2.03-0.96
				c-0.37-0.64-0.79-1.27-1.26-1.87c-2.29-2.96-5.07-4.44-8.32-4.44c-3.23,0-6,1.48-8.29,4.44c-2.29,2.96-3.44,6.52-3.44,10.69
				c0,4.19,1.15,7.76,3.44,10.72c2.29,2.96,5.06,4.44,8.29,4.44c3.25,0,6.02-1.48,8.32-4.44c0.47-0.61,0.89-1.24,1.26-1.9
				l-2.03-0.94C203.66,127.48,203.44,127.8,203.19,128.12z"/>
			<path d="M248.92,119.82c-1.02-1.05-2.74-2.25-5.15-3.61c-1.53-0.99-2.45-1.84-3-2.21c-0.86-0.58-1.36-0.99-1.22-3
				c0.09-1.18,0.41-2.19,1.22-3.01s1.78-1.24,2.92-1.24c1.15,0,2.08,0.37,2.79,1.11c0.71,0.74,1.16,1.84,1.34,3.32l2.21-0.9v-0.15
				c0-1.55-0.58-2.94-1.75-4.16c-1.21-1.24-2.74-1.86-4.58-1.86c-1.83,0-3.4,0.67-4.7,2.02c-1.3,1.35-1.95,2.97-1.95,4.87
				c0,1.88,0.65,3.49,1.95,4.83c0.83,0.85,2.33,1.88,4.5,3.08c1.83,1.2,3.05,2.11,3.65,2.74c1.11,1.14,1.67,2.52,1.67,4.13
				c0,1.65-0.56,3.05-1.68,4.19c-1.12,1.14-2.47,1.72-4.03,1.72c-1.57,0-2.91-0.57-4.03-1.72c-1.12-1.14-1.68-2.57-1.68-4.28
				l-2.52,0.67c0,1.98,0.8,3.8,2.41,5.46c1.6,1.66,3.55,2.49,5.83,2.49c2.28,0,4.23-0.83,5.83-2.49c1.6-1.66,2.41-3.67,2.41-6.04
				C251.33,123.48,250.52,121.49,248.92,119.82z"/>
		</g>
		<path d="M232.4,119.1v-2.16h0c0-0.35,0-0.71-0.02-1.07c-0.18-3.87-1.68-6.83-4.26-8.98c0,0-0.01,0.01-0.01,0.01
			c-1.96-1.83-4.22-2.76-6.77-2.76c-3.23,0-6,1.48-8.29,4.44c-2.29,2.96-3.44,6.52-3.44,10.69c0,4.19,1.15,7.76,3.44,10.72
			c2.29,2.96,5.06,4.44,8.29,4.44c3.25,0,6.02-1.48,8.32-4.44c0.47-0.61,0.89-1.24,1.26-1.9l-2.03-0.94
			c-0.21,0.33-0.44,0.65-0.68,0.96c-1.9,2.44-4.18,3.66-6.86,3.66c-2.66,0-4.94-1.22-6.84-3.66c-1.9-2.44-2.84-5.39-2.84-8.84
			c0-0.06,0.01-0.11,0.01-0.17H232.4z M214.49,110.44c1.9-2.43,4.18-3.65,6.84-3.65c2.01,0,3.79,0.68,5.36,2.04
			c0.01,0.01,0.02,0.02,0.03,0.03c0.51,0.45,1.01,0.97,1.47,1.57c0,0.01,0.01,0.01,0.01,0.02c1.19,1.61,1.88,3.61,2,5.94
			c0,0.19,0,0.38,0,0.56H211.8C212.14,114.48,213.03,112.31,214.49,110.44z"/>
	</g>
</g>
</svg>
