<svg xmlns="http://www.w3.org/2000/svg" viewBox="0 0 200 28"><path fill="#ffc72c" d="M17.56 14.14c-.88-.54 0-1.35.8-1.35 1.33 0 2.52 1.15 2.52 1.15s-2.27.85-3.32.2zM5.31 25.6c-3.04.82-2.23-5.87 1.63-11.2C10.9 8.94 14 7.3 14 7.3c-.67 7.95-5.42 17.43-8.67 18.3zm19-21.6c-1.95-.92-4.7-.45-7.2.46v-.01C17.3 1.01 16.76 0 16.76 0l-2.85.8s.38 2 .2 5.09C6.68 10.19 1.68 17.36.31 22.19c-1.5 5.25 2.68 7.04 6.2 4.45C15.23 20.25 17 5.71 17 5.71c2.63-.8 4.72-.37 5.95.69 3.08 2.66-.92 6.74-.92 6.74s-1.03-1.2-2.99-1.39c-3.1-.28-4.7 3.47-.56 3.87.7.07 2.53-.2 3.21-.54.7 1.28.48 7.22-3.52 8.97-3.6 1.58-4.94-.63-4.94-.63-.1 0-1.94 2.4-1.82 2.63 0 0 1.9 2.84 6.08 1.62 3.3-.96 4.9-3.84 5.73-5.9 1.4-3.43.4-6.46-.15-7.26 5.48-3.82 4.67-9.03 1.24-10.5"/><path fill="#1b2335" d="M174.27 19.84L164.2 8.61l-.27-.3h-2.34v16.93h2.99V13.51l10.52 11.72h2.15V8.29h-3v11.54m-38.2-11.52h-3v16.93h13.2v-2.85h-10.2V8.31m15.04 16.93h2.98V8.31h-2.98zm40.94-9.69v2.73H197v3.32c-1.65 1.19-5.23.99-5.23.99-3.3 0-6.35-1.42-6.35-5.64 0-3.74 2.74-6.1 6.35-6.1 2.62 0 4.5.71 5.52 1.34l1.23-2.64A13.84 13.84 0 00191.78 8c-5.7 0-9.34 3.3-9.34 8.95 0 5.47 3.98 8.5 9.34 8.5 5.79 0 8.22-2.24 8.22-2.4v-7.5h-7.96m-140.89 7h-7.77v-4.5h7.37c1.6 0 2.98.35 2.98 2.27 0 1.9-1.62 2.23-2.58 2.23zm-7.77-11.58h6.55c1.8 0 2.96.72 2.96 2.12 0 .83-.24 2.28-2.29 2.28h-7.2v-4.4zm10.97 5.33c1.14-.84 1.5-1.9 1.5-3.28 0-3.4-1.85-4.73-5.8-4.73h-9.59v16.94h10.7c4.6 0 5.62-2.53 5.62-5.2 0-1.33-.72-3.03-2.43-3.73m10.92-.76v-4.5h6.42c1.13 0 3.07.3 3.07 2.45 0 1.8-1.77 2.05-3.1 2.05zm12.47-2.29c0-4.06-3.16-4.94-6.1-4.94H62.3v16.93h2.98v-6.98h4.43l4.37 6.97h3.52l-4.53-6.97c2.54-.2 4.68-1.73 4.68-5m8.7 4.89h8.19v-2.73h-8.2v-4.26h11.29V8.31H83.46v16.91h14.28v-2.86h-11.3v-4.21m16.79 7.07h2.98V8.32h-2.98zm8.5-14.06h6.3v14.08h3V11.16h6.3V8.31h-15.6v2.85"/></svg>