<svg xmlns:xlink="http://www.w3.org/1999/xlink" width="594" height="274" viewBox="0 0 594 274" fill="none" xmlns="http://www.w3.org/2000/svg">
<path d="M521.212 80.4594C518.96 80.7471 516.125 81.5297 514.456 82.011C512.792 82.4943 510.719 83.1712 510.719 86.4972C510.719 86.4972 510.644 88.4494 510.522 91.745C509.029 111.617 501.565 121.658 497.131 126.148C497.131 93.6502 486.695 84.6778 473.492 84.6778C461.139 84.6778 455.22 92.9272 451.951 99.464C449.658 104.045 446.594 110.01 443.059 115.302C439.648 120.404 434.03 126.629 431.275 128.851C431.275 96.3536 420.839 84.6778 407.636 84.6778C397.577 84.6778 389.407 91.1288 385.495 103.928C380.358 107.891 374.395 128.676 374.395 149.72C374.395 182.154 391.817 190.074 400.405 190.074C424.812 190.074 431.275 152.889 431.275 139.427C434.746 136.71 438.788 133.125 441.935 129.698C440.893 135.956 440.25 142.822 440.25 149.72C440.25 182.154 457.672 190.074 466.26 190.074C490.667 190.074 497.129 154 497.129 139.427C500.138 137.072 507.806 127.96 509.315 123.457C508.633 142.672 507.959 164.145 507.959 169.378C507.959 179.954 507.119 194.724 506.238 206.651C504.706 227.323 504.494 248.305 505.893 258.679C506.495 263.155 508.235 266.182 510.478 268.632C512.908 271.287 515.324 273.007 517.95 273.307C519.765 273.515 521.087 272.111 520.876 270.274C520.364 265.794 519.291 256.626 519.291 233.983C519.291 210.325 520.396 181.098 520.396 181.098C520.396 181.098 526.201 189.881 534.568 189.881C542.911 189.881 550.276 183.878 555.458 172.039C559.784 162.153 562.689 148.412 563.643 133.349C564.725 116.21 562.302 96.8547 556.663 89.8764C553.593 86.0766 548.749 83.9224 543.676 85.1109C535.873 86.9366 527.688 102.388 522.02 113.037C522.02 113.037 524.383 88.6775 524.632 83.9768C524.747 81.7756 523.419 80.178 521.212 80.4594ZM401.942 176.364C396.262 176.364 385.954 171.102 385.954 148.606C385.954 136.856 387.552 127.472 387.561 127.358C391.388 144.019 405.754 152.949 419.593 145.491C419.593 159.451 412.25 176.364 401.942 176.364ZM411.779 137.197C404.43 137.197 395.482 127.192 395.482 113.607C395.482 101.035 404.574 94.983 410.018 97.2889C418.152 100.735 420.382 117.53 420.382 134.477C420.079 134.861 416.574 137.197 411.779 137.197ZM467.796 176.364C462.118 176.364 451.807 171.102 451.807 148.606C451.807 136.856 453.406 127.472 453.417 127.358C457.243 144.019 471.61 151.306 485.447 143.85C485.447 157.808 478.102 176.364 467.796 176.364ZM477.635 135.945C470.283 135.945 461.338 127.192 461.338 113.607C461.338 101.035 470.41 95.0322 475.872 97.2889C485.446 101.243 486.191 119 486.588 132.61C486.283 132.995 482.428 135.945 477.635 135.945ZM544.799 101.243C551.84 101.243 550.374 130.102 549.078 142.437C547.789 154.68 540.876 175.733 531.077 175.733C523.694 175.733 521.056 168.797 521.056 162.779C521.056 155.573 521.43 139.083 521.748 131.222C529.611 117.082 539.83 101.243 544.799 101.243ZM344.556 260.154C327.013 260.154 315.896 238.208 310.943 229.495C309.987 227.812 309.453 226.662 308.078 225.272C305.439 222.6 300.493 222.044 296.835 222.044C293.124 222.044 292.641 224.025 292.778 225.206C294.603 241.012 315.271 270.967 339.561 270.967C363.393 270.967 365.634 252.285 365.634 206.464V145.82C365.634 138.44 366.547 120.036 367.023 114.366C368.195 100.414 369.786 91.8255 370.968 85.2563C371.525 82.1637 371.834 79.8725 368.866 80.1131C366.269 80.3234 364.863 80.5954 362.393 81.3163C360.436 81.8886 359.219 83.2581 358.845 85.2103C358.298 88.0717 357.992 89.7007 357.348 94.9234C355.265 90.4445 352.162 86.9983 347.582 85.6916C344.689 84.8692 342.09 84.7793 338.61 85.497C337.56 85.7146 331.563 86.2869 325.57 93.7276C315.361 106.406 312.713 126.392 312.182 144.619C310.941 187.186 328.193 190.049 334.323 190.049C347.818 190.049 352.589 173.576 352.589 173.576C352.589 173.576 352.893 179.497 352.893 208.993C352.894 238.488 352.318 260.154 344.556 260.154ZM352.314 145.4C351.144 157.091 344.484 175.87 336.668 175.87C328.853 175.87 325.369 160.669 325.964 140.297C326.535 120.664 332.681 98.1259 344.75 98.1259C355.365 98.1259 353.997 119.355 353.83 125.108C353.642 131.53 352.886 139.703 352.314 145.4ZM584.431 156.174C586.524 156.395 587.429 155.392 587.429 153.189L592.314 18.2617C592.379 16.4497 590.429 14.7674 588.258 15.302C586.085 15.8366 582.13 17.5053 580.255 18.3141C576.848 19.784 575.582 21.5165 575.582 26.5018L577.566 145.136C577.566 149.166 577.95 151.534 579.51 153.28C580.875 154.806 582.86 156.009 584.431 156.174ZM93.971 88.5321C94.0327 86.5976 93.1481 85.6309 91.2315 85.9071C89.3128 86.1822 84.2949 87.331 83.5003 87.4827C82.7045 87.6333 81.752 87.9556 81.18 88.4892C80.5506 89.0771 80.2557 89.9204 80.1564 90.839C79.3899 97.9595 79.0292 115.596 78.4249 131.678C77.9198 145.126 77.3541 151.619 77.3541 166.777C77.3541 180.75 82.739 190.005 92.9902 190.005C104.072 190.005 111.773 176.955 111.773 176.955C111.838 180.648 114.564 193.128 122.091 193.128C124.109 193.128 125.728 192.312 125.65 190.386C125.65 190.37 125.649 190.355 125.648 190.34C125.464 181.997 125.224 169.121 125.464 159.29C126.38 141.614 127.785 116.401 129.114 96.5838C129.114 96.5838 129.618 88.2328 129.692 87.0663C129.824 84.9979 128.969 83.3836 126.737 83.6096C124.622 83.8241 121.272 84.3409 120.403 84.5177C118.138 84.9812 116.841 85.7146 116.609 88.1523C116.287 91.5703 115.05 110.397 114.009 124.018C112.845 139.227 111.906 150.119 111.136 161.402C108.611 170.185 102.556 174.813 96.3676 174.673C87.1275 174.465 89.6181 155.114 90.531 140.253C91.4804 124.815 93.8477 92.4501 93.971 88.5321ZM12.5355 141.264C12.5355 138.283 12.2302 137.137 9.16965 137.137C8.29447 137.137 5.70762 136.795 3.5683 141.092C0.591434 147.068 0.0456238 155.632 0.0456238 161.801C0.0456238 182.718 15.2008 198.175 36.3378 198.175C46.863 198.175 70.267 190.916 70.267 163.751C70.267 138.338 45.3165 121.831 37.0091 113.424C28.7049 105.016 22.336 97.2397 22.336 72.2508C22.336 52.6687 29.4232 16.6966 42.2361 16.6966C62.152 16.6966 57.5659 76.0988 52.8815 89.9486C52.5156 91.0346 52.1632 92.5694 52.9736 93.2327C53.9805 94.0561 55.848 93.8845 57.7771 93.3185C61.0196 92.3685 62.9477 90.3818 63.8584 87.7484C68.5448 74.2072 68.502 52.8968 68.502 40.8088C68.502 12.8455 55.9546 0.785706 44.1224 0.785706C14.0004 0.785706 9.40805 64.0903 9.63913 79.1956C9.85557 93.3143 10.7339 105.093 18.6785 116.53C28.7571 131.039 56.7629 141.024 56.7629 165.248C56.7629 173.093 48.8664 182.293 37.4901 182.293C13.6334 182.293 11.7398 155.829 11.9824 149.051C12.1131 145.423 12.5355 143.382 12.5355 141.264ZM152.06 80.4594C149.807 80.7471 146.971 81.5297 145.304 82.011C143.638 82.4943 141.566 83.1712 141.566 86.4972C141.566 86.4972 138.807 158.799 138.807 169.376C138.807 179.953 137.969 194.723 137.087 206.65C135.555 227.322 135.341 248.304 136.74 258.678C137.343 263.154 139.083 266.181 141.326 268.631C143.756 271.286 146.171 273.005 148.797 273.306C150.614 273.514 151.936 272.11 151.724 270.273C151.212 265.793 150.139 256.625 150.139 233.982C150.139 210.324 151.243 181.097 151.243 181.097C151.243 181.097 157.048 189.88 165.417 189.88C173.758 189.88 181.123 183.877 186.306 172.038C190.631 162.152 193.538 148.411 194.49 133.348C195.572 116.209 193.148 96.8537 187.511 89.8754C184.441 86.0755 179.597 83.9214 174.523 85.1099C166.72 86.9355 158.564 101.028 152.867 110.511C153.304 103.223 155.23 88.6764 155.478 83.9758C155.595 81.7756 154.267 80.178 152.06 80.4594ZM175.646 101.243C182.69 101.243 181.221 130.102 179.926 142.437C178.639 154.68 171.723 175.733 161.927 175.733C154.545 175.733 151.902 168.797 151.902 162.779C151.902 155.573 152.28 139.083 152.597 131.222C160.46 117.082 170.678 101.243 175.646 101.243ZM252.129 111.472C253.301 96.6716 249.195 82.9159 235.585 82.9159C223.646 82.9159 215.104 92.04 209.174 105.337C203.804 117.373 200.6 137.748 200.6 152.466C200.6 168.925 203.841 189.861 224.471 189.861C241.441 189.861 252.717 174.021 259.866 162.331C259.722 166.512 259.637 173.654 259.637 176.112C259.637 178.571 258.205 187.933 271.256 192.049C271.671 192.18 272.111 192.21 272.539 192.134C272.967 192.058 273.371 191.88 273.715 191.615C274.06 191.35 274.335 191.005 274.518 190.61C274.701 190.216 274.786 189.782 274.765 189.348L274.763 189.302C273.988 169.88 273.832 153.421 274.285 139.31C277.795 132.136 295.503 102.893 295.503 102.893C295.503 102.893 295.052 108.496 295.132 112.246C295.185 114.662 296.037 116.583 297.668 117.954C300.038 119.945 303.205 120.49 305.881 120.558C307.192 120.591 308.272 119.519 308.285 118.185C308.32 114.938 308.568 108.931 309.456 101.484C310.274 94.6305 311.514 87.2389 311.442 86.1749C311.406 85.6581 310.969 85.2459 310.282 84.9268C308.044 83.8952 300.162 83.2152 296.613 86.7346C293.501 89.821 281.884 106.8 275.689 117.053C277.044 103.552 278.575 94.0446 280.234 85.0931C280.479 83.7665 280.424 82.9243 279.811 82.0528C279.265 81.2734 278.392 80.8392 277.278 80.9323C276.162 81.0244 271.868 81.8467 269.986 82.2955C268.104 82.7454 267.026 83.5259 266.823 85.0659C265.911 91.8643 265.203 95.7803 262.586 125.635C259.97 155.49 238.365 176.024 226.855 176.024C215.345 176.024 213.473 164.507 213.473 151.747C214.892 152.15 216.342 152.284 217.682 152.292C239.442 152.292 251.029 125.375 252.129 111.472ZM220.984 108.203C225.205 98.4983 231.725 93.3373 235.539 95.0301C239.51 96.7951 240.191 103.941 239.518 111.368C238.372 124.057 229.736 139.998 218.398 139.998C216.657 139.998 215.055 139.897 213.856 139.612C213.856 129.066 217.954 115.164 220.984 108.203Z" fill="#0000B4"/>
<path d="M582.029 191.611C588.632 191.611 593.985 186.194 593.985 179.512C593.985 172.83 588.632 167.414 582.029 167.414C575.426 167.414 570.074 172.83 570.074 179.512C570.074 186.194 575.426 191.611 582.029 191.611Z" fill="#0000B4"/>
</svg>